<svg width="36" height="17" viewBox="0 0 36 17" fill="none" xmlns="http://www.w3.org/2000/svg">
<path d="M10.1138 11.4307C10.4264 10.7292 10.8074 10.0951 11.243 9.48887C11.7143 8.83497 12.2412 8.24061 12.8356 7.70181C13.4855 7.11539 14.1791 6.58453 14.9709 6.20846C15.5534 5.93063 16.1001 6.1132 16.5595 6.47042C17.011 6.8187 17.2213 7.32971 17.1261 7.91614C17.015 8.58194 16.7461 9.20012 16.4881 9.8183C16.2579 10.365 15.9731 10.884 15.6595 11.391C14.9739 12.4964 14.1424 13.4668 13.1273 14.2914C12.4694 14.8223 11.7719 15.2936 11.0197 15.6746C10.469 15.9525 9.91832 16.2293 9.30014 16.3285C8.82088 16.4079 8.34558 16.3166 7.9328 16.1142C6.77186 15.5476 5.75777 14.7627 4.79528 13.9034C3.94392 13.1424 3.18683 12.3029 2.53689 11.3752C1.85124 10.3968 1.30054 9.33507 0.85303 8.21382C0.469025 7.25132 0.151502 6.27196 0.028462 5.242C-0.122361 4.01358 0.899666 2.94789 2.21143 3.17016C3.02409 3.30511 3.69288 3.77246 4.35075 4.22394C4.9332 4.62382 5.48391 5.08324 6.01477 5.55952C6.6766 6.14992 7.2789 6.79191 7.83358 7.47756C8.57083 8.38845 9.14931 9.40751 9.67224 10.4533C9.83298 10.7649 9.91137 11.1221 10.1138 11.4307Z" fill="black"/>
<path d="M19.3497 10.9155C20.0671 10.5871 20.7408 10.3529 21.5009 10.5117C23.1927 10.86 24.1631 12.5438 23.7315 14.1374C23.2959 15.7379 21.5088 16.6498 20.0115 16.0832C18.7434 15.604 18.0498 14.5343 18.0855 13.1709C18.1292 11.7014 18.2483 10.2348 18.4815 8.78117C18.5132 8.57875 18.537 8.36939 18.5251 8.163C18.5092 7.90898 18.6323 7.89707 18.8218 7.93279C19.3447 8.03599 19.6543 8.51128 19.5511 9.0858C19.4955 9.38645 19.4439 9.68413 19.4281 9.99272C19.4092 10.2854 19.3775 10.5791 19.3497 10.9155ZM20.9661 15.1158C21.9008 15.1951 22.7412 14.315 22.7452 13.3525C22.7452 12.3583 21.874 11.5575 20.974 11.5694C20.0155 11.5813 19.1909 12.39 19.1909 13.3446C19.187 14.2753 19.9877 15.1872 20.9661 15.1158Z" fill="black"/>
<path d="M27.1372 16.2228C24.9741 16.2228 23.6226 14.028 24.5266 12.106C25.2321 10.6086 26.9278 10.0143 28.4966 10.7902C29.1823 11.1306 29.1743 12.0663 28.8052 12.4344C28.1513 13.0843 27.4974 13.7303 26.8554 14.3921C26.7165 14.535 26.4635 14.67 26.5508 14.919C26.646 15.1849 26.9189 15.1016 27.1253 15.1016C27.9221 15.1095 28.449 14.7096 28.7655 13.9962C28.8766 13.7462 28.9481 13.4534 29.3162 13.4336C29.7201 13.4138 29.982 13.7223 29.8907 14.1192C29.6258 15.3268 28.3021 16.2943 27.1372 16.2228ZM25.363 13.4296C25.371 13.4733 25.3789 13.5924 25.4107 13.7075C25.4781 13.9456 25.7113 14.0161 25.878 13.8424C26.4486 13.26 27.0152 12.6735 27.5857 12.0871C27.673 11.9958 27.804 11.9204 27.7286 11.7587C27.6651 11.6197 27.542 11.588 27.4081 11.5681C26.3414 11.4243 25.3591 12.2369 25.363 13.4296Z" fill="black"/>
<path d="M30.3302 13.3793C30.2548 12.528 30.5882 11.8145 31.1706 11.2638C31.888 10.5821 33.0847 10.1743 34.1901 10.6655C34.5026 10.8044 34.8202 10.9235 34.975 11.2519C35.2091 11.751 35.1218 12.1866 34.7209 12.5875C34.0869 13.2176 33.4568 13.8477 32.8267 14.4817C32.7037 14.6087 32.5181 14.7199 32.6084 14.9451C32.6957 15.1594 32.8972 15.092 33.0599 15.1078C33.9549 15.1991 34.6009 14.6206 34.9065 13.8239C35.0335 13.4914 35.2627 13.3724 35.612 13.4716C35.8739 13.547 36.0357 13.8358 35.9563 14.1215C35.6318 15.2785 34.5572 16.1775 33.3298 16.2331C32.2443 16.2847 31.4118 15.8173 30.7896 14.9888C30.4374 14.5323 30.2667 13.9697 30.3302 13.3793ZM33.175 11.5804C32.66 11.5208 32.272 11.7709 31.9426 12.0556C31.4594 12.4793 31.3443 13.0618 31.4395 13.6919C31.4554 13.7871 31.4435 13.9022 31.5665 13.93C31.6856 13.9578 31.7967 13.9499 31.895 13.8467C32.4735 13.2602 33.0599 12.6778 33.6384 12.0914C33.7178 12.012 33.8368 11.9326 33.7773 11.7907C33.7178 11.6399 33.5828 11.5923 33.437 11.5843C33.3457 11.5764 33.2464 11.5804 33.175 11.5804Z" fill="black"/>
<path d="M15.4473 0.752694C15.2647 0.764601 15.0514 0.780477 14.8331 0.784446C14.6346 0.788415 14.4927 0.709034 14.4768 0.491729C14.457 0.273432 14.5443 0.151384 14.7775 0.115663C16.0416 -0.0788202 17.281 -0.055006 18.5054 0.396472C19.9194 0.923362 21.0456 1.79556 21.9049 3.03886C22.5548 3.97754 22.8991 5.02338 23.046 6.14166C23.0579 6.21707 23.0619 6.29645 23.0579 6.37186C23.042 6.55047 22.9547 6.68839 22.7731 6.72014C22.5826 6.7519 22.5032 6.60107 22.4606 6.45025C22.3177 5.9948 22.2224 5.52745 22.0408 5.08292C21.5536 3.89419 20.7886 2.89994 19.7666 2.14285C18.8319 1.44926 17.789 0.942215 16.5973 0.835051C16.2193 0.804291 15.8511 0.756663 15.4473 0.752694Z" fill="black"/>
<path d="M15.6407 2.7663C15.4661 2.77821 15.2924 2.78218 15.1178 2.80599C14.8439 2.84171 14.7179 2.66707 14.706 2.45374C14.6941 2.25528 14.7973 2.11339 15.0543 2.07767C16.1477 1.93479 17.2055 2.01417 18.2077 2.48946C18.8179 2.77821 19.3488 3.19495 19.8042 3.69406C20.2914 4.22889 20.6288 4.85501 20.8779 5.52875C21.0128 5.89688 21.0446 6.28981 21.0882 6.67779C21.1081 6.84846 21.0406 7.00623 20.854 7.06179C20.6437 7.1253 20.5216 6.99035 20.4542 6.81571C20.3748 6.61329 20.3152 6.40392 20.2557 6.19356C19.8717 4.86989 19.0035 3.93518 17.8306 3.29716C17.1708 2.93598 16.4256 2.72661 15.6407 2.7663Z" fill="black"/>
<path d="M15.9622 4.04838C17.4913 3.99678 18.9181 5.28473 19.0918 6.78999C19.0957 6.83365 19.1037 6.87731 19.1037 6.92097C19.1037 7.11545 19.1434 7.3407 18.8774 7.39626C18.6036 7.4558 18.5212 7.24941 18.4617 7.04401C18.295 6.46155 18.0142 5.95451 17.5468 5.55066C16.9644 5.04361 16.3224 4.74197 15.5425 4.76578C15.2884 4.77372 14.9838 4.83722 14.9322 4.45719C14.9005 4.22302 15.1704 4.06128 15.5702 4.04937C15.7002 4.04441 15.8312 4.04838 15.9622 4.04838Z" fill="black"/>
<path d="M8.96862 16.1894C9.87952 16.2529 10.5374 15.5395 10.6287 14.7983C10.7597 13.7484 10.4263 12.7979 10.074 11.8542C9.78922 11.0852 9.44391 10.3371 9.05197 9.60775C8.58859 8.74448 8.03788 7.94373 7.41177 7.20251C6.87694 6.56845 6.2786 5.98997 5.64852 5.44323C4.88349 4.78536 4.08769 4.17116 3.19565 3.7038C2.85134 3.52122 2.49809 3.30392 2.08234 3.2682C1.10794 3.17691 0.022406 4.06101 0.180175 5.23783C0.406411 6.92964 1.05138 8.47459 1.85213 9.96099C2.41078 11.0029 3.1123 11.9415 3.91603 12.8137C4.97378 13.9548 6.15457 14.9451 7.50603 15.7141C7.96644 15.979 8.4457 16.2767 8.96862 16.1894Z" fill="#FFE11C"/>
<path d="M14.9907 12.0442C15.2328 11.817 15.5018 11.2831 15.4303 11.1492C15.1723 10.662 14.8915 10.2026 14.4678 9.82153C13.798 9.2232 13.0221 8.93048 12.1499 8.82729C12.0546 8.81538 11.9554 8.80744 11.884 8.9027C11.7451 9.09321 11.5992 9.27876 11.4404 9.48912C13.1213 9.68261 14.31 10.5151 14.9907 12.0442Z" fill="#FFE11C"/>
<path d="M12.4792 8.33594C13.8069 8.57805 14.8408 9.23096 15.586 10.3324C15.6694 10.4554 15.7378 10.506 15.8083 10.7084C16.0355 10.3909 16.2181 10.0218 16.1109 9.82334C15.5364 8.73383 14.7267 8.10177 13.5102 7.83187C13.0101 7.72173 12.7204 7.84874 12.4792 8.33594Z" fill="#FFE11C"/>
<path d="M16.4414 9.46105C16.5684 9.22291 16.6835 9.00164 16.7341 8.74365C16.7619 8.59283 16.7103 8.46979 16.6309 8.35171C16.1913 7.69384 15.6168 7.21061 14.8597 6.94071C14.2932 6.73829 13.9885 6.81371 13.5718 7.35647C14.8369 7.62637 15.7835 8.32789 16.4414 9.46105Z" fill="#FFE11C"/>
</svg>
